<mxfile host="drawio-plugin" modified="2025-05-12T15:44:47.596Z" agent="Mozilla/5.0 (Windows NT 10.0; Win64; x64) AppleWebKit/537.36 (KHTML, like Gecko) Chrome/122.0.0.0 Safari/537.36" etag="aI2psOvxVwDdt0oDp2Oe" version="22.1.22" type="embed">
  <diagram id="component-diagram" name="Component Diagram">
    <mxGraphModel dx="3349" dy="2906" grid="1" gridSize="10" guides="1" tooltips="1" connect="1" arrows="1" fold="1" page="1" pageScale="1" pageWidth="850" pageHeight="1100" math="0" shadow="0">
      <root>
        <mxCell id="0" />
        <mxCell id="1" parent="0" />
        <mxCell id="2" value="GoSquad System" style="swimlane;startSize=30;fillColor=#FFFFCC;strokeColor=#666666;fontColor=#333333;" parent="1" vertex="1">
          <mxGeometry x="200" y="-490" width="520" height="1350" as="geometry" />
        </mxCell>
        <mxCell id="5" value="PostgreSQL&#xa;Database" style="rounded=1;whiteSpace=wrap;html=1;fillColor=#ffe6cc;strokeColor=#d79b00;" parent="2" vertex="1">
          <mxGeometry x="197" y="940" width="120" height="80" as="geometry" />
        </mxCell>
        <mxCell id="6" value="HTTP/REST" style="endArrow=classic;startArrow=classic;html=1;entryX=0.5;entryY=0;entryDx=0;entryDy=0;exitX=0.5;exitY=1;exitDx=0;exitDy=0;" parent="2" source="3" target="4" edge="1">
          <mxGeometry width="50" height="50" relative="1" as="geometry">
            <mxPoint x="310" y="220" as="sourcePoint" />
            <mxPoint x="250" y="110" as="targetPoint" />
          </mxGeometry>
        </mxCell>
        <mxCell id="7" value="JDBC" style="endArrow=classic;startArrow=classic;html=1;entryX=0.5;entryY=0;entryDx=0;entryDy=0;exitX=0.5;exitY=1;exitDx=0;exitDy=0;" parent="2" source="4" target="5" edge="1">
          <mxGeometry width="50" height="50" relative="1" as="geometry">
            <mxPoint x="400" y="160" as="sourcePoint" />
            <mxPoint x="450" y="110" as="targetPoint" />
          </mxGeometry>
        </mxCell>
        <mxCell id="28" value="" style="group" vertex="1" connectable="0" parent="2">
          <mxGeometry x="162" y="70" width="280" height="420" as="geometry" />
        </mxCell>
        <mxCell id="3" value="" style="rounded=1;whiteSpace=wrap;html=1;fillColor=#dae8fc;strokeColor=#6c8ebf;" parent="28" vertex="1">
          <mxGeometry x="-90" width="370" height="420" as="geometry" />
        </mxCell>
        <mxCell id="14" value="&lt;font style=&quot;font-size: 18px;&quot;&gt;Angular&lt;br style=&quot;border-color: var(--border-color);&quot;&gt;Frontend&lt;/font&gt;" style="text;html=1;strokeColor=none;fillColor=none;align=center;verticalAlign=middle;whiteSpace=wrap;rounded=0;" vertex="1" parent="28">
          <mxGeometry x="23" width="137" height="57.14" as="geometry" />
        </mxCell>
        <mxCell id="32" style="edgeStyle=orthogonalEdgeStyle;rounded=0;orthogonalLoop=1;jettySize=auto;html=1;entryX=0.5;entryY=0;entryDx=0;entryDy=0;" edge="1" parent="28" source="10" target="9">
          <mxGeometry relative="1" as="geometry" />
        </mxCell>
        <mxCell id="10" value="Presenter" style="rounded=1;whiteSpace=wrap;html=1;fillColor=#dae8fc;strokeColor=#6c8ebf;" vertex="1" parent="28">
          <mxGeometry x="100" y="70" width="124" height="42.38" as="geometry" />
        </mxCell>
        <mxCell id="33" style="edgeStyle=orthogonalEdgeStyle;rounded=0;orthogonalLoop=1;jettySize=auto;html=1;entryX=0.5;entryY=0;entryDx=0;entryDy=0;" edge="1" parent="28" source="9" target="8">
          <mxGeometry relative="1" as="geometry" />
        </mxCell>
        <mxCell id="9" value="Container" style="rounded=1;whiteSpace=wrap;html=1;fillColor=#dae8fc;strokeColor=#6c8ebf;" vertex="1" parent="28">
          <mxGeometry x="100" y="140" width="124" height="41.43" as="geometry" />
        </mxCell>
        <mxCell id="36" style="edgeStyle=orthogonalEdgeStyle;rounded=0;orthogonalLoop=1;jettySize=auto;html=1;entryX=0.5;entryY=0;entryDx=0;entryDy=0;" edge="1" parent="28" source="8" target="34">
          <mxGeometry relative="1" as="geometry" />
        </mxCell>
        <mxCell id="8" value="Services" style="rounded=1;whiteSpace=wrap;html=1;fillColor=#dae8fc;strokeColor=#6c8ebf;" vertex="1" parent="28">
          <mxGeometry x="100" y="210" width="124" height="41.9" as="geometry" />
        </mxCell>
        <mxCell id="43" style="edgeStyle=orthogonalEdgeStyle;rounded=0;orthogonalLoop=1;jettySize=auto;html=1;entryX=1;entryY=0.5;entryDx=0;entryDy=0;" edge="1" parent="28" source="35" target="39">
          <mxGeometry relative="1" as="geometry" />
        </mxCell>
        <mxCell id="35" value="Reducers" style="rounded=1;whiteSpace=wrap;html=1;fillColor=#dae8fc;strokeColor=#6c8ebf;" vertex="1" parent="28">
          <mxGeometry x="100" y="350" width="124" height="41.9" as="geometry" />
        </mxCell>
        <mxCell id="37" style="edgeStyle=orthogonalEdgeStyle;rounded=0;orthogonalLoop=1;jettySize=auto;html=1;entryX=0.5;entryY=0;entryDx=0;entryDy=0;" edge="1" parent="28" source="34" target="35">
          <mxGeometry relative="1" as="geometry" />
        </mxCell>
        <mxCell id="34" value="Actions" style="rounded=1;whiteSpace=wrap;html=1;fillColor=#dae8fc;strokeColor=#6c8ebf;" vertex="1" parent="28">
          <mxGeometry x="100" y="280" width="124" height="41.9" as="geometry" />
        </mxCell>
        <mxCell id="39" value="Store" style="rounded=1;whiteSpace=wrap;html=1;fillColor=#dae8fc;strokeColor=#6c8ebf;" vertex="1" parent="28">
          <mxGeometry x="-50" y="350" width="124" height="41.9" as="geometry" />
        </mxCell>
        <mxCell id="40" style="edgeStyle=orthogonalEdgeStyle;rounded=0;orthogonalLoop=1;jettySize=auto;html=1;entryX=0;entryY=0.5;entryDx=0;entryDy=0;" edge="1" parent="28" source="38" target="8">
          <mxGeometry relative="1" as="geometry" />
        </mxCell>
        <mxCell id="41" style="edgeStyle=orthogonalEdgeStyle;rounded=0;orthogonalLoop=1;jettySize=auto;html=1;entryX=0.5;entryY=0;entryDx=0;entryDy=0;" edge="1" parent="28" source="38" target="39">
          <mxGeometry relative="1" as="geometry" />
        </mxCell>
        <mxCell id="38" value="Selectors" style="rounded=1;whiteSpace=wrap;html=1;fillColor=#dae8fc;strokeColor=#6c8ebf;" vertex="1" parent="28">
          <mxGeometry x="-50" y="210" width="124" height="41.9" as="geometry" />
        </mxCell>
        <mxCell id="30" value="" style="group" vertex="1" connectable="0" parent="2">
          <mxGeometry x="187" y="583" width="140" height="270" as="geometry" />
        </mxCell>
        <mxCell id="4" value="" style="rounded=1;whiteSpace=wrap;html=1;fillColor=#d5e8d4;strokeColor=#82b366;" parent="30" vertex="1">
          <mxGeometry width="140" height="270" as="geometry" />
        </mxCell>
        <mxCell id="29" value="" style="group" vertex="1" connectable="0" parent="30">
          <mxGeometry x="10" y="13" width="120" height="235" as="geometry" />
        </mxCell>
        <mxCell id="13" value="Spring Boot&lt;br style=&quot;border-color: var(--border-color);&quot;&gt;Backend API" style="text;html=1;strokeColor=none;fillColor=none;align=center;verticalAlign=middle;whiteSpace=wrap;rounded=0;" vertex="1" parent="29">
          <mxGeometry x="16" width="80" height="30" as="geometry" />
        </mxCell>
        <mxCell id="15" value="Controllers" style="rounded=1;whiteSpace=wrap;html=1;fillColor=#d5e8d4;strokeColor=#82b366;" vertex="1" parent="29">
          <mxGeometry y="55" width="120" height="40" as="geometry" />
        </mxCell>
        <mxCell id="16" value="Services" style="rounded=1;whiteSpace=wrap;html=1;fillColor=#d5e8d4;strokeColor=#82b366;" vertex="1" parent="29">
          <mxGeometry y="125" width="120" height="40" as="geometry" />
        </mxCell>
        <mxCell id="22" style="edgeStyle=orthogonalEdgeStyle;rounded=0;orthogonalLoop=1;jettySize=auto;html=1;entryX=0.5;entryY=0;entryDx=0;entryDy=0;" edge="1" parent="29" source="15" target="16">
          <mxGeometry relative="1" as="geometry" />
        </mxCell>
        <mxCell id="17" value="Repositories" style="rounded=1;whiteSpace=wrap;html=1;fillColor=#d5e8d4;strokeColor=#82b366;" vertex="1" parent="29">
          <mxGeometry y="195" width="120" height="40" as="geometry" />
        </mxCell>
        <mxCell id="23" style="edgeStyle=orthogonalEdgeStyle;rounded=0;orthogonalLoop=1;jettySize=auto;html=1;entryX=0.503;entryY=0.067;entryDx=0;entryDy=0;entryPerimeter=0;" edge="1" parent="29" source="16" target="17">
          <mxGeometry relative="1" as="geometry" />
        </mxCell>
        <mxCell id="26" style="edgeStyle=orthogonalEdgeStyle;rounded=0;orthogonalLoop=1;jettySize=auto;html=1;exitX=0.5;exitY=1;exitDx=0;exitDy=0;" edge="1" parent="30" source="4" target="4">
          <mxGeometry relative="1" as="geometry" />
        </mxCell>
        <mxCell id="45" value="&lt;font style=&quot;font-size: 14px;&quot;&gt;Bucket S3&lt;/font&gt;" style="rounded=1;whiteSpace=wrap;html=1;fillColor=#FF99CC;strokeColor=#d79b00;" vertex="1" parent="2">
          <mxGeometry x="380" y="786" width="120" height="50" as="geometry" />
        </mxCell>
        <mxCell id="46" style="edgeStyle=orthogonalEdgeStyle;rounded=0;orthogonalLoop=1;jettySize=auto;html=1;entryX=0;entryY=0.5;entryDx=0;entryDy=0;" edge="1" parent="2" source="17" target="45">
          <mxGeometry relative="1" as="geometry" />
        </mxCell>
      </root>
    </mxGraphModel>
  </diagram>
</mxfile>
